<?xml version="1.0" encoding="UTF-8"?>
<svg id="Layer_1" data-name="Layer 1" xmlns="http://www.w3.org/2000/svg" version="1.1" viewBox="0 0 20 20">
  <defs>
    <style>
      .cls-1 {
        fill: #00c46a;
      }

      .cls-1, .cls-2 {
        stroke-width: 0px;
      }

      .cls-2 {
        fill: #2d3439;
      }
    </style>
  </defs>
  <path class="cls-1" d="M21.52,20c.26,0,.48-.28.48-.63V.63c0-.35-.21-.63-.48-.63H-.59c-.26,0-.48.28-.48.63v18.74c0,.35.21.63.48.63"/>
  <path class="cls-2" d="M19.5,9.98c0-1.01-1-1.96-2.78-2.67h0s-.15-.06-.15-.06c-1.76-.67-4.07-1.04-6.51-1.05h0s-.12,0-.12,0h0c-.44,0-.88.01-1.31.04-1.28.07-2.49.25-3.58.51-.06.02-.13.03-.19.05-.51.13-.99.28-1.43.45l-.15.06h0c-1.78.71-2.77,1.65-2.78,2.67,0,0,0,.01,0,.02,0,.54.28,1.07.83,1.56.5.44,1.19.83,2.07,1.17h0s.15.06.15.06c1.74.64,4.01,1,6.39,1h0s.12,0,.12,0h0c1.41,0,2.77-.13,4.01-.36.86-.16,1.66-.38,2.38-.64l.15-.06h0c.87-.34,1.57-.73,2.06-1.17.55-.49.83-1.01.83-1.56,0,0,0-.01,0-.02ZM5.91,7.92s0,0-.01.01c-.37-.07-.74-.15-1.09-.25.98-.51,2.25-.9,3.69-1.15-1.05.3-1.95.78-2.59,1.38ZM5.94,8.06c.49.09.99.17,1.5.22-.26.51-.4,1.07-.41,1.64h-2.01c.03-.66.34-1.3.91-1.86,0,0,0,0,0,0ZM5.79,8.03c-.56.57-.86,1.22-.89,1.89h-2.08c.04-.78.67-1.53,1.83-2.16.03,0,.05.01.08.02h0c.34.09.69.17,1.06.24ZM4.9,10.05c0,.71.33,1.4.94,2-.35.07-.7.15-1.04.23-.01,0-.03,0-.04.01-1.23-.64-1.92-1.44-1.94-2.25h2.08ZM5.95,12.15c.59.54,1.37.98,2.3,1.27-1.28-.24-2.42-.6-3.32-1.05.33-.08.67-.16,1.02-.23ZM5.02,10.05h2.01c0,.61.16,1.22.44,1.76-.51.06-1.01.13-1.49.22-.62-.59-.95-1.27-.96-1.98ZM7.15,10.05h1.53c0,.58.06,1.13.18,1.65-.43.02-.85.05-1.26.09-.29-.53-.45-1.14-.45-1.74ZM7.15,9.92c.01-.57.16-1.13.42-1.63,0,0,0,0,0,0,.41.04.84.07,1.27.1-.1.48-.16,1-.16,1.53h-1.53ZM7.63,8.18s0,0,0,0c.46-.81,1.22-1.43,2.1-1.74-.37.37-.66.99-.85,1.77,0,.02,0,.04-.01.06-.42-.02-.83-.05-1.24-.09ZM9.38,6.45c-.78.34-1.44.93-1.86,1.67,0,.02-.02.03-.03.05-.5-.05-.99-.12-1.46-.21.77-.71,1.93-1.24,3.25-1.49.03,0,.06-.01.09-.02ZM3.63,7.31s.05-.02.07-.02c.03-.01.06-.02.1-.03.02,0,.05-.02.07-.02.03-.01.06-.02.1-.03.03,0,.05-.02.08-.02.03-.01.06-.02.1-.03.03,0,.05-.02.08-.02.03,0,.06-.02.1-.03.03,0,.05-.02.08-.02.03,0,.06-.02.1-.03.03,0,.05-.02.08-.02.03,0,.07-.02.1-.03.03,0,.06-.01.08-.02.03,0,.07-.02.1-.03.03,0,.06-.01.08-.02.03,0,.07-.02.1-.03.03,0,.06-.01.09-.02.03,0,.07-.02.1-.02.03,0,.06-.01.09-.02.03,0,.07-.02.1-.02.03,0,.06-.01.09-.02.03,0,.07-.01.1-.02.03,0,.06-.01.09-.02.03,0,.07-.01.11-.02.03,0,.06-.01.09-.02.04,0,.07-.01.11-.02.03,0,.06-.01.09-.02.04,0,.07-.01.11-.02.03,0,.06-.01.09-.02.04,0,.07-.01.11-.02.03,0,.06-.01.09-.02.04,0,.07-.01.11-.02.03,0,.06,0,.09-.01.04,0,.07-.01.11-.02.03,0,.06,0,.1-.01.04,0,.07-.01.11-.01.03,0,.06,0,.1-.01.04,0,.08,0,.11-.01.03,0,.06,0,.1-.01.04,0,.08,0,.11-.01.03,0,.07,0,.1-.01.04,0,.08,0,.11-.01.03,0,.07,0,.1,0,.04,0,.08,0,.12-.01.03,0,.07,0,.1,0,.04,0,.08,0,.12,0,.03,0,.07,0,.1,0,.04,0,.08,0,.12,0,.03,0,.07,0,.1,0,.04,0,.08,0,.12,0,.03,0,.07,0,.1,0,.04,0,.08,0,.12,0,.02,0,.04,0,.06,0-1.6.25-3,.67-4.07,1.23h-.01s-.05.03-.08.05c-.36-.1-.7-.21-1.02-.32,0,0,0,0,0,0ZM1.38,8.56c.49-.44,1.18-.84,2.06-1.17.32.12.67.24,1.04.34-1.13.64-1.75,1.4-1.78,2.2H.62c.02-.47.28-.93.76-1.37ZM.62,10.05h2.08c.02.84.67,1.63,1.89,2.29-.36.1-.7.21-1.02.33-1.84-.68-2.91-1.63-2.95-2.62ZM8.76,13.64s-.08,0-.12,0c-.03,0-.06,0-.1,0-.04,0-.08,0-.12,0-.03,0-.06,0-.1,0-.04,0-.08,0-.12,0-.03,0-.06,0-.1,0-.04,0-.08,0-.11,0-.03,0-.06,0-.1,0-.04,0-.08,0-.11-.01-.03,0-.06,0-.1,0-.04,0-.07,0-.11-.01-.03,0-.06,0-.1-.01-.04,0-.07,0-.11-.01-.03,0-.06,0-.1-.01-.04,0-.07,0-.11-.01-.03,0-.06,0-.09-.01-.04,0-.07,0-.11-.01-.03,0-.06,0-.09-.01-.04,0-.07,0-.11-.02-.03,0-.06,0-.09-.01-.04,0-.07-.01-.11-.02-.03,0-.06,0-.09-.01-.04,0-.07-.01-.11-.02-.03,0-.06-.01-.09-.02-.04,0-.07-.01-.11-.02-.03,0-.06-.01-.09-.02-.04,0-.07-.01-.1-.02-.03,0-.06-.01-.09-.02-.03,0-.07-.01-.1-.02-.03,0-.06-.01-.09-.02-.03,0-.07-.01-.1-.02-.03,0-.06-.01-.09-.02-.03,0-.07-.01-.1-.02-.03,0-.06-.01-.09-.02-.03,0-.07-.02-.1-.02-.03,0-.06-.01-.08-.02-.03,0-.07-.02-.1-.02-.03,0-.06-.01-.08-.02-.03,0-.07-.02-.1-.03-.03,0-.05-.01-.08-.02-.03,0-.07-.02-.1-.03-.03,0-.05-.01-.08-.02-.03,0-.06-.02-.1-.03-.03,0-.05-.01-.08-.02-.03,0-.06-.02-.1-.03-.03,0-.05-.01-.08-.02-.03,0-.06-.02-.1-.03-.02,0-.05-.01-.07-.02-.03-.01-.06-.02-.1-.03-.02,0-.05-.02-.07-.02-.03-.01-.07-.02-.1-.03-.02,0-.04-.01-.06-.02,0,0,0,0,0,0,.32-.11.65-.21,1-.31.01,0,.03.01.04.02,1.05.54,2.44.95,4,1.19-.01,0-.02,0-.03,0ZM8.89,13.48c-1.13-.27-2.1-.74-2.79-1.35.46-.08.94-.15,1.44-.2.42.73,1.08,1.32,1.85,1.66-.17-.03-.33-.06-.5-.1ZM7.67,11.9c.4-.04.81-.07,1.22-.09,0,0,0,0,0,0,.19.78.49,1.39.85,1.77-.87-.3-1.61-.9-2.07-1.68ZM9.94,13.61c-.4-.33-.73-.98-.93-1.8.31-.01.62-.02.93-.02v1.82ZM9.94,11.67c-.32,0-.64,0-.96.02-.12-.52-.18-1.07-.18-1.65h1.14v1.62ZM9.94,9.92h-1.14c0-.53.06-1.05.16-1.53.32.01.65.02.97.02v1.5ZM9.94,8.3c-.32,0-.64,0-.95-.02,0-.01,0-.03,0-.04.2-.83.54-1.49.94-1.82v1.88ZM18.62,8.56c.48.43.74.89.76,1.37h-2.08c-.04-.8-.65-1.56-1.78-2.2.36-.1.71-.22,1.04-.34.88.34,1.58.73,2.06,1.17ZM14.11,7.93s0,0-.01-.01c-.64-.6-1.54-1.08-2.59-1.38,1.44.25,2.71.64,3.69,1.15-.35.09-.71.17-1.09.25ZM15.27,7.79h0s.05-.02.08-.02c1.16.63,1.79,1.37,1.83,2.16h-2.08c-.02-.67-.33-1.32-.89-1.89.36-.07.72-.15,1.06-.24ZM14.07,8.06c.57.56.88,1.2.91,1.86h-2.01c-.01-.57-.15-1.13-.41-1.64.51-.06,1.02-.13,1.5-.22,0,0,0,0,0,0ZM12.85,9.92h-1.53c0-.54-.06-1.05-.16-1.53.43-.02.86-.05,1.27-.1,0,0,0,0,0,0,.26.5.4,1.06.42,1.63ZM11.32,10.05h1.53c0,.61-.16,1.21-.45,1.74-.41-.04-.83-.07-1.26-.09.11-.52.17-1.07.18-1.65ZM12.97,10.05h2.01c0,.7-.34,1.39-.96,1.98-.48-.09-.98-.16-1.49-.22.28-.54.44-1.15.44-1.76ZM14.05,12.15c.35.07.69.14,1.02.23-.9.45-2.04.8-3.32,1.05.92-.3,1.71-.73,2.3-1.27ZM14.16,12.05c.61-.6.93-1.29.94-2h2.08c-.02.81-.71,1.6-1.94,2.25-.01,0-.03,0-.04-.01-.33-.09-.68-.16-1.04-.23ZM11.27,6.37s.08,0,.12,0c.03,0,.07,0,.1,0,.04,0,.08,0,.12,0,.03,0,.07,0,.1,0,.04,0,.08,0,.12,0,.03,0,.07,0,.1,0,.04,0,.08,0,.12,0,.03,0,.07,0,.1,0,.04,0,.08,0,.12.01.03,0,.07,0,.1,0,.04,0,.08,0,.11.01.03,0,.07,0,.1.01.04,0,.08,0,.11.01.03,0,.06,0,.1.01.04,0,.08,0,.11.01.03,0,.06,0,.1.01.04,0,.07,0,.11.01.03,0,.06,0,.1.01.04,0,.07.01.11.02.03,0,.06,0,.09.01.04,0,.07.01.11.02.03,0,.06,0,.09.02.04,0,.07.01.11.02.03,0,.06.01.09.02.04,0,.07.01.11.02.03,0,.06.01.09.02.04,0,.07.01.11.02.03,0,.06.01.09.02.04,0,.07.01.11.02.03,0,.06.01.09.02.03,0,.07.01.1.02.03,0,.06.01.09.02.03,0,.07.02.1.02.03,0,.06.01.09.02.03,0,.07.02.1.02.03,0,.06.01.09.02.03,0,.07.02.1.03.03,0,.06.01.09.02.03,0,.07.02.1.03.03,0,.06.01.08.02.03,0,.07.02.1.03.03,0,.06.02.08.02.03,0,.06.02.1.03.03,0,.05.02.08.02.03,0,.06.02.1.03.03,0,.05.02.08.02.03,0,.06.02.1.03.03,0,.05.02.08.03.03.01.06.02.09.03.03,0,.05.02.08.03.03.01.06.02.09.03.02,0,.05.02.07.03,0,0,0,0,0,0-.32.12-.66.22-1.02.32-.03-.01-.05-.03-.08-.04h-.01c-.53-.29-1.15-.53-1.83-.74-.68-.21-1.43-.37-2.24-.5.02,0,.04,0,.06,0ZM10.71,6.47c1.33.25,2.48.78,3.25,1.49-.47.09-.96.16-1.46.21,0-.02-.02-.03-.03-.05-.42-.74-1.08-1.33-1.86-1.67.03,0,.06.01.09.02ZM12.37,8.18s0,0,0,0c-.4.04-.82.07-1.24.09,0-.02,0-.04-.01-.06-.19-.78-.49-1.39-.85-1.77.89.31,1.64.93,2.1,1.74ZM10.06,6.42c.4.34.74.99.94,1.82,0,.01,0,.03,0,.04-.31.01-.63.02-.95.02v-1.88ZM10.06,8.42c.33,0,.65,0,.97-.02.1.48.16.99.16,1.53h-1.14v-1.5ZM10.06,10.05h1.14c0,.58-.06,1.13-.18,1.65-.32-.01-.64-.02-.96-.02v-1.62ZM10.06,13.61v-1.82c.31,0,.63,0,.93.02-.2.82-.54,1.47-.93,1.8ZM11.12,11.82s0,0,0,0c.41.02.82.05,1.22.09-.46.78-1.2,1.38-2.07,1.68.37-.37.66-.99.85-1.77ZM10.61,13.58c.78-.34,1.43-.93,1.85-1.66.49.05.98.12,1.44.2-.69.61-1.66,1.08-2.79,1.35-.16.04-.33.07-.5.1ZM16.25,12.73s-.04.01-.06.02c-.03.01-.07.02-.1.04-.02,0-.04.01-.07.02-.03.01-.07.02-.1.03-.02,0-.05.01-.07.02-.03.01-.07.02-.1.03-.02,0-.05.01-.08.02-.03,0-.06.02-.1.03-.03,0-.05.01-.08.02-.03,0-.07.02-.1.03-.03,0-.05.01-.08.02-.03,0-.07.02-.1.03-.03,0-.05.01-.08.02-.03,0-.07.02-.1.03-.03,0-.05.01-.08.02-.03,0-.07.02-.1.02-.03,0-.06.01-.08.02-.03,0-.07.02-.1.02-.03,0-.06.01-.09.02-.03,0-.07.01-.1.02-.03,0-.06.01-.09.02-.03,0-.07.01-.1.02-.03,0-.06.01-.09.02-.03,0-.07.01-.1.02-.03,0-.06.01-.09.02-.03,0-.07.01-.1.02-.03,0-.06.01-.09.02-.04,0-.07.01-.11.02-.03,0-.06.01-.09.02-.04,0-.07.01-.11.02-.03,0-.06,0-.09.01-.04,0-.07.01-.11.02-.03,0-.06,0-.09.01-.04,0-.07.01-.11.02-.03,0-.06,0-.09.01-.04,0-.07,0-.11.01-.03,0-.06,0-.09.01-.04,0-.07,0-.11.01-.03,0-.06,0-.1.01-.04,0-.07,0-.11.01-.03,0-.06,0-.1.01-.04,0-.07,0-.11.01-.03,0-.06,0-.1,0-.04,0-.08,0-.11.01-.03,0-.06,0-.1,0-.04,0-.08,0-.11,0-.03,0-.06,0-.1,0-.04,0-.08,0-.12,0-.03,0-.06,0-.1,0-.04,0-.08,0-.12,0-.03,0-.06,0-.1,0-.04,0-.08,0-.12,0-.01,0-.02,0-.03,0,1.56-.25,2.95-.66,4-1.19.01,0,.03-.01.04-.02.35.09.69.2,1,.31,0,0,0,0,0,0ZM16.43,12.66c-.32-.12-.67-.23-1.02-.33,1.22-.66,1.87-1.45,1.89-2.29h2.08c-.03.98-1.1,1.94-2.95,2.62Z"/>
</svg>